<svg aria-hidden="true" style="position:absolute;width:0;height:0" xmlns="http://www.w3.org/2000/svg" overflow="hidden">
  <defs>

    <symbol id="cross" viewBox="0 0 32 32">
      <path d="M23.734 10.304L22.23 8.8l-5.963 5.962L10.305 8.8l-1.504 1.504 5.962 5.962-5.962 5.963 1.504 1.504 5.962-5.963 5.963 5.963 1.504-1.504-5.963-5.963 5.963-5.962z" />
    </symbol>

    <symbol id="menu" viewBox="0 0 32 32">
      <path d="M6.4 11.734V9.6h19.2v2.134H6.4zm0 5.332h19.2v-2.133H6.4v2.133zm0 5.334h19.2v-2.134H6.4V22.4z" />
    </symbol>

    <symbol id="logo" viewBox="0 0 38 32">
      <path d="M22.015 18.386h-6.312c-0.069 0-0.132 0.044-0.158 0.107l-5.934 12.655c-0.044 0.113 0.038 0.232 0.157 0.226h18.166c0.12 0 0.195-0.125 0.157-0.232l-5.934-12.655c-0.019-0.056-0.082-0.1-0.145-0.1z"></path>
      <path d="M9.694 27.77l5.146-10.894c0.013-0.031 0.019-0.069 0.006-0.107l-7.445-15.889c-0.050-0.188-0.328-0.163-0.328 0.038l2.305 26.789c-0.013 0.176 0.246 0.232 0.315 0.063z"></path>
      <path d="M0.466 10.589l4.857-10.518c0.101-0.138 0.309-0.063 0.302 0.107l2.557 29.108c-0.006 0.175-0.252 0.226-0.321 0.063l-7.678-16.409c-0.321-0.777-0.214-1.667 0.283-2.35z"></path>
      <path d="M28.339 27.707l2.305-26.789c0-0.194-0.277-0.226-0.328-0.038l-7.445 15.889c-0.013 0.038-0.006 0.075 0.006 0.107l5.146 10.894c0.069 0.169 0.328 0.113 0.315-0.063z"></path>
      <path d="M37.529 12.94l-7.678 16.409c-0.069 0.169-0.315 0.119-0.321-0.063l2.557-29.108c-0.006-0.169 0.202-0.238 0.302-0.107l4.863 10.518c0.498 0.683 0.598 1.573 0.277 2.35z"></path>
    </symbol>

  </defs>
</svg>